<svg width="118" height="125" viewBox="0 0 118 125" fill="none" xmlns="http://www.w3.org/2000/svg">
<g id="Group 1" filter="url(#filter0_di_26_4)">
<g id="Group">
<path id="Vector" d="M26 53.3555V49.0735H27.5161C28.2911 49.0735 28.7357 49.652 28.7357 50.326C28.7357 51.0001 28.2862 51.5785 27.5161 51.5785H26.345V53.358H26V53.3555ZM27.4796 49.4069H26.345V51.2427H27.4796C28.0141 51.2427 28.3713 50.8628 28.3713 50.3236C28.3713 49.7843 28.0141 49.4069 27.4796 49.4069Z" fill="#C39B2D"/>
<path id="Vector_2" d="M31.9233 53.3555L31.5176 52.3016H29.365L28.9592 53.3555H28.5705L30.225 49.0735H30.6551L32.3096 53.3555H31.9209H31.9233ZM30.4388 49.4338L29.4743 51.9707H31.4082L30.4388 49.4338Z" fill="#C39B2D"/>
<path id="Vector_3" d="M35.7961 53.3555L33.2499 49.6569V53.3555H32.9049V49.0735H33.2571L35.7912 52.7207V49.0735H36.1362V53.3555H35.7961Z" fill="#C39B2D"/>
<path id="Vector_4" d="M37.1396 53.3555V49.0735H39.7052V49.4069H37.487V50.9927H39.6639V51.326H37.487V53.0197H39.7052V53.353H37.1396V53.3555Z" fill="#C39B2D"/>
<path id="Vector_5" d="M41.5906 53.3555V49.4069H40.2689V49.0735H43.2646V49.4069H41.9429V53.3555H41.5906Z" fill="#C39B2D"/>
<path id="Vector_6" d="M45.009 53.3555V49.4069H43.6873V49.0735H46.683V49.4069H45.3613V53.3555H45.009Z" fill="#C39B2D"/>
<path id="Vector_7" d="M49.0348 49.0024C50.218 49.0024 51.0003 49.9657 51.0003 51.2182C51.0003 52.4707 50.218 53.4339 49.0348 53.4339C47.8516 53.4339 47.0693 52.4707 47.0693 51.2182C47.0693 49.9657 47.8443 49.0024 49.0348 49.0024ZM49.0348 49.3358C48.0533 49.3358 47.4337 50.125 47.4337 51.2157C47.4337 52.3064 48.0508 53.0981 49.0348 53.0981C50.0188 53.0981 50.6359 52.2966 50.6359 51.2157C50.6359 50.1348 50.0042 49.3358 49.0348 49.3358Z" fill="#C39B2D"/>
<path id="Vector_8" d="M54.7443 53.3555L52.1981 49.6569V53.3555H51.8531V49.0735H52.2054L54.7395 52.7207V49.0735H55.0845V53.3555H54.7443Z" fill="#C39B2D"/>
<path id="Vector_9" d="M56.0879 53.3555V49.0735H58.6535V49.4069H56.4353V50.9927H58.6122V51.326H56.4353V53.0197H58.6535V53.353H56.0879V53.3555Z" fill="#C39B2D"/>
<path id="Vector_10" d="M64.018 53.3555L63.6123 52.3016H61.4597L61.0539 53.3555H60.6652L62.3197 49.0735H62.7498L64.4043 53.3555H64.0156H64.018ZM62.5311 49.4338L61.5666 51.9707H63.5005L62.5311 49.4338Z" fill="#C39B2D"/>
<path id="Vector_11" d="M67.3684 53.3555L66.2338 51.5834H65.3421V53.3555H64.9971V49.0735H66.5059C67.2032 49.0735 67.7377 49.5417 67.7377 50.326C67.7377 51.1104 67.2153 51.5344 66.6152 51.5589L67.7863 53.358H67.3684V53.3555ZM66.4767 49.4069H65.3421V51.2501H66.4767C67.0113 51.2501 67.3733 50.8653 67.3733 50.326C67.3733 49.7868 67.0088 49.4093 66.4767 49.4093V49.4069Z" fill="#C39B2D"/>
<path id="Vector_12" d="M69.5696 53.3555V49.4069H68.2479V49.0735H71.2436V49.4069H69.9219V53.3555H69.5696Z" fill="#C39B2D"/>
<path id="Vector_13" d="M71.9554 53.3555V49.0735H72.3004V53.3555H71.9554Z" fill="#C39B2D"/>
<path id="Vector_14" d="M75.2062 49.0024C75.8744 49.0024 76.3578 49.2843 76.7271 49.7353L76.4672 49.9338C76.1829 49.5735 75.7213 49.3358 75.2062 49.3358C74.2538 49.3358 73.5201 50.1005 73.5201 51.2157C73.5201 52.331 74.2538 53.103 75.2062 53.103C75.7456 53.103 76.1708 52.8212 76.3943 52.5834V51.5564H74.8661V51.228H76.7393V52.7231C76.3821 53.1471 75.8428 53.4364 75.2062 53.4364C74.0716 53.4364 73.1557 52.5368 73.1557 51.2157C73.1557 49.8946 74.0716 49 75.2062 49V49.0024Z" fill="#C39B2D"/>
<path id="Vector_15" d="M77.6188 53.3555V49.0735H77.9638V53.3555H77.6188Z" fill="#C39B2D"/>
<path id="Vector_16" d="M81.9094 53.3555L81.5037 52.3016H79.3511L78.9453 53.3555H78.5566L80.2111 49.0735H80.6412L82.2957 53.3555H81.907H81.9094ZM80.4225 49.4338L79.458 51.9707H81.3919L80.4225 49.4338Z" fill="#C39B2D"/>
<path id="Vector_17" d="M85.7822 53.3555L83.236 49.6569V53.3555H82.891V49.0735H83.2433L85.7773 52.7207V49.0735H86.1223V53.3555H85.7822Z" fill="#C39B2D"/>
<path id="Vector_18" d="M90.0679 53.3555L89.6622 52.3016H87.5096L87.1038 53.3555H86.7151L88.3697 49.0735H88.7997L90.4542 53.3555H90.0655H90.0679ZM88.581 49.4338L87.6165 51.9707H89.5504L88.581 49.4338Z" fill="#C39B2D"/>
<path id="Vector_19" d="M91.0495 53.3555V49.0735H91.3945V53.0222H93.3527V53.3555H91.0495Z" fill="#C39B2D"/>
<path id="Vector_20" d="M94.1035 53.3555V49.0735H96.6691V49.4069H94.4509V50.9927H96.6278V51.326H94.4509V53.0197H96.6691V53.353H94.1035V53.3555Z" fill="#C39B2D"/>
</g>
<g id="Livello 1">
<g id="Group_2">
<g id="Vector_21" style="mix-blend-mode:multiply">
<path d="M53.3376 29.6182L54.2419 28.0111C52.8589 26.5273 52.0052 24.4882 52.0052 22.2371C52.0052 19.6131 53.1654 17.2789 54.9714 15.7737L58.7558 22.4867L54.2622 30.4553H54.8245L56.243 27.9413H61.8309L63.2494 30.4553H65.2531L60.04 21.2069L63.2494 15.5107L63.5179 15.0359C66.3017 16.7181 67.5201 19.6104 67.5201 22.2345C67.5201 24.4882 66.664 26.5273 65.2784 28.0137L66.1827 29.6209C68.0875 27.7776 69.2831 25.1241 69.2831 22.1727C69.2831 18.8189 67.738 15.8461 65.3595 14.0136H65.3569L63.5281 14.0163L59.7538 20.7159L55.9846 14.0163H54.1532C51.7798 15.8542 50.2397 18.8216 50.2397 22.1727C50.2397 25.1187 51.4328 27.7723 53.3351 29.6155L53.3376 29.6182ZM61.5649 27.4664H56.5115L59.037 22.983L61.5649 27.4664Z" fill="#C39B2D"/>
</g>
<g id="Vector_22" style="mix-blend-mode:multiply">
<path d="M110.336 23.5734H75.3929C75.0914 20.0828 73.8781 17.9176 72.1151 14.1479C69.9341 9.48745 67.4568 6.04779 63.2849 5.21605C59.113 4.3843 56.4938 6.13901 53.981 7.34102C51.6633 8.4518 50.6374 8.103 48.5045 10.8424C47.0379 12.7259 46.4376 15.1299 45.7866 16.6002C45.2724 17.7593 43.75 20.9306 43.0028 23.5734H6V118.972H111.93V23.5734H110.339H110.336ZM59.7639 9.16281C66.5804 9.16281 72.105 15.0145 72.105 22.2346C72.105 29.4547 66.5804 35.3064 59.7639 35.3064C52.9475 35.3064 47.4229 29.4547 47.4229 22.2346C47.4229 15.0145 52.9475 9.16281 59.7639 9.16281ZM110.336 117.284H7.59075V25.2584H42.6329C42.6203 25.355 42.6076 25.4516 42.6 25.5428C42.4708 26.9165 42.2656 30.5252 45.6853 34.7939C49.1049 39.0627 54.3863 39.3202 57.1372 39.1244C59.8881 38.9258 61.5573 39.5671 62.4844 39.6771C63.409 39.7871 66.0434 40.1117 68.8348 38.6414C71.6237 37.1711 75.2738 31.577 75.4536 26.294C75.4663 25.9345 75.4688 25.5938 75.4688 25.2611H110.339V117.284H110.336Z" fill="#C39B2D"/>
</g>
</g>
<g id="Group_3" style="mix-blend-mode:multiply">
<path id="Vector_23" d="M42.2504 85.2431C40.8851 88.6478 38.9955 90.6065 34.1751 90.6065C27.7462 90.6065 24.4127 87.6283 24.4127 80.5209V76.9873C24.4127 75.7531 24.4533 73.4135 25.4563 71.3261C26.8217 68.517 29.9576 67.1137 33.6533 67.1137C39.5604 67.1137 42.6937 70.5615 42.6937 76.6037V77.54C42.6937 78.0928 42.5342 78.3047 41.6096 78.3047H30.4009V82.2193C30.4009 87.2419 32.25 89.8794 35.1022 89.8794C37.6732 89.8794 40.2443 88.943 41.6121 84.9426L42.2555 85.2404L42.2504 85.2431ZM36.5055 77.6259C37.2679 77.6259 37.349 77.583 37.349 76.6037V76.1368C37.349 71.8386 37.349 67.7523 33.6533 67.7523C30.3983 67.7523 30.3983 71.9647 30.3983 73.5826V77.6259H36.5055Z" fill="#C39B2D"/>
<path id="Vector_24" d="M65.0808 77.8379V89.5843H66.8084V90.2228H58.0491V89.5843H59.7766V68.3909H58.0491V67.7523H65.0808V73.2848" fill="#C39B2D"/>
<path id="Vector_25" d="M96.787 88.7337C96.3842 89.713 95.5002 90.7353 93.6941 90.7353H93.494C89.5171 90.7353 88.5926 88.9054 88.2303 87.4995C86.9841 90.0108 85.1375 90.7755 83.2073 90.7755C77.3002 90.7755 73.564 86.0936 73.564 78.9433C73.564 73.7087 76.1756 67.1137 83.6075 67.1137C89.5526 67.1137 93.532 71.5408 93.532 79.0291V88.774C93.532 89.5386 94.0943 89.9652 94.6567 89.9652C95.3406 89.9652 95.8624 89.4125 96.1031 88.731H96.787V88.7337ZM88.1898 76.6064C88.1898 72.2223 87.9897 67.7979 83.5695 67.7979C79.7522 67.7979 79.1494 70.862 79.1494 74.5216V80.9904C79.1494 87.2044 79.9118 90.0108 83.529 90.0108C86.5433 90.0108 88.1898 86.4773 88.1898 84.7333V76.6064Z" fill="#C39B2D"/>
<path id="Vector_26" d="M70.9524 71.1115C70.9524 71.1115 69.9443 70.2958 69.6986 69.6546C69.4351 68.965 69.4833 68.2272 69.4833 68.2272L69.5086 67.755C69.5086 67.755 68.3206 68.7504 67.5303 70.1C66.7906 71.361 66.2384 72.6354 66.5095 74.1728C66.8008 75.8175 68.3105 76.8881 69.8607 76.5688C71.4109 76.2495 72.4241 74.6611 72.1227 73.0191C71.9758 72.2142 71.5401 71.5488 70.9524 71.1141V71.1115Z" fill="#C39B2D"/>
<path id="Vector_27" d="M62.4084 67.7523H69.5111L69.4832 68.3909H64.0904" fill="#C39B2D"/>
<path id="Vector_28" d="M54.6345 88.731C54.2318 89.7103 53.4263 90.7353 51.6177 90.7353H51.1338C47.6737 90.7353 46.0222 89.2435 46.0222 85.6643V68.4875H43.4866V67.7201H46.0222V61.0715C47.5926 60.7737 49.3633 60.0493 51.3745 58.6434V67.7228H55.5996L55.5591 68.4901H51.3745V88.7793C51.3745 89.5467 51.9368 89.9733 52.5017 89.9733C53.1856 89.9733 53.71 89.4206 53.9506 88.7364H54.6345V88.731Z" fill="#C39B2D"/>
</g>
</g>
</g>
<defs>
<filter id="filter0_di_26_4" x="0" y="-1" width="117.93" height="125.972" filterUnits="userSpaceOnUse" color-interpolation-filters="sRGB">
<feFlood flood-opacity="0" result="BackgroundImageFix"/>
<feColorMatrix in="SourceAlpha" type="matrix" values="0 0 0 0 0 0 0 0 0 0 0 0 0 0 0 0 0 0 127 0" result="hardAlpha"/>
<feOffset/>
<feGaussianBlur stdDeviation="3"/>
<feComposite in2="hardAlpha" operator="out"/>
<feColorMatrix type="matrix" values="0 0 0 0 0.764706 0 0 0 0 0.607843 0 0 0 0 0.176471 0 0 0 1 0"/>
<feBlend mode="normal" in2="BackgroundImageFix" result="effect1_dropShadow_26_4"/>
<feBlend mode="normal" in="SourceGraphic" in2="effect1_dropShadow_26_4" result="shape"/>
<feColorMatrix in="SourceAlpha" type="matrix" values="0 0 0 0 0 0 0 0 0 0 0 0 0 0 0 0 0 0 127 0" result="hardAlpha"/>
<feOffset dy="4"/>
<feGaussianBlur stdDeviation="2"/>
<feComposite in2="hardAlpha" operator="arithmetic" k2="-1" k3="1"/>
<feColorMatrix type="matrix" values="0 0 0 0 0.764706 0 0 0 0 0.607843 0 0 0 0 0.176471 0 0 0 1 0"/>
<feBlend mode="screen" in2="shape" result="effect2_innerShadow_26_4"/>
</filter>
</defs>
</svg>
