<svg width="58" height="58" viewBox="0 0 58 58" fill="none" xmlns="http://www.w3.org/2000/svg">
<g clip-path="url(#clip0_1_122)" filter="url(#filter0_i_1_122)">
<path d="M28.9855 3.625C35.1408 3.625 41.6694 8.80875 41.6694 12.6784V21.7355C41.6694 25.2227 40.2194 31.8927 36.3316 34.9541C35.3401 35.7334 34.8254 36.975 34.974 38.2292C35.1226 39.4835 35.9129 40.5692 37.0602 41.0966L52.8344 48.5768C52.9576 48.633 54.346 48.8668 54.346 50.8062L54.3478 54.3442L3.62681 54.3478V50.6702C3.62681 49.2293 4.70706 48.7762 5.14025 48.5786L21.0576 41.0658C22.1995 40.542 22.9879 39.4617 23.1402 38.2147C23.2924 36.9677 22.7904 35.7316 21.8116 34.9468C18.0453 31.9236 16.2908 25.2771 16.2908 21.7391V12.6821C16.2926 8.89575 22.8846 3.62863 28.9855 3.62863V3.625ZM28.9855 0C20.9815 0 12.6658 6.68087 12.6658 12.6802V21.7373C12.6658 25.6958 14.4728 33.7016 19.5406 37.7725L3.62138 45.2853C3.62138 45.2853 0 46.8984 0 48.9085V54.3478C0 56.3506 1.62219 57.971 3.62138 57.971H54.346C56.3488 57.971 57.9692 56.3488 57.9692 54.3478V48.9085C57.9692 46.7788 54.346 45.2853 54.346 45.2853L38.5718 37.8051C43.5924 33.8539 45.2926 26.0891 45.2926 21.7373V12.6802C45.2926 6.68087 36.9877 0.0018125 28.9837 0.0018125L28.9855 0Z" fill="#C39B2D"/>
</g>
<defs>
<filter id="filter0_i_1_122" x="0" y="0" width="58" height="62" filterUnits="userSpaceOnUse" color-interpolation-filters="sRGB">
<feFlood flood-opacity="0" result="BackgroundImageFix"/>
<feBlend mode="normal" in="SourceGraphic" in2="BackgroundImageFix" result="shape"/>
<feColorMatrix in="SourceAlpha" type="matrix" values="0 0 0 0 0 0 0 0 0 0 0 0 0 0 0 0 0 0 127 0" result="hardAlpha"/>
<feOffset dy="4"/>
<feGaussianBlur stdDeviation="2"/>
<feComposite in2="hardAlpha" operator="arithmetic" k2="-1" k3="1"/>
<feColorMatrix type="matrix" values="0 0 0 0 0.764706 0 0 0 0 0.607843 0 0 0 0 0.176471 0 0 0 1 0"/>
<feBlend mode="screen" in2="shape" result="effect1_innerShadow_1_122"/>
</filter>
<clipPath id="clip0_1_122">
<rect width="58" height="58" fill="white"/>
</clipPath>
</defs>
</svg>
